<svg xmlns="http://www.w3.org/2000/svg" width="28" height="24" viewBox="0 0 28 24" fill="none">
  <path d="M24.7398 0.119171H3.42673C2.77451 0.119171 2.149 0.37796 1.68781 0.838608C1.22662 1.29926 0.967529 1.92403 0.967529 2.57548L0.967529 5.85056C0.967529 6.50202 1.22662 7.12679 1.68781 7.58744C2.149 8.04809 2.77451 8.30688 3.42673 8.30688H5.57443C4.51374 10.1369 4.07244 12.2599 4.31612 14.3604C4.55979 16.4609 5.47543 18.4269 6.92699 19.9662C7.00126 20.0447 7.09029 20.1078 7.18899 20.1519C7.28768 20.196 7.39412 20.2203 7.50221 20.2233C7.61029 20.2264 7.71793 20.2081 7.81895 20.1696C7.91998 20.1311 8.01242 20.0731 8.09101 19.9989C8.16959 19.9247 8.23277 19.8358 8.27695 19.7372C8.32113 19.6386 8.34543 19.5323 8.34848 19.4244C8.35152 19.3164 8.33325 19.2089 8.2947 19.108C8.25615 19.0071 8.19807 18.9148 8.1238 18.8363C6.71698 17.3435 5.92203 15.3779 5.89605 13.3279C5.87008 11.278 6.61497 9.29293 7.9835 7.76506C9.35204 6.23718 11.2446 5.27769 13.2872 5.07624C15.3298 4.87478 17.3737 5.44601 19.015 6.67703C20.6562 7.90805 21.7755 9.70927 22.1514 11.7247C22.5273 13.7401 22.1326 15.823 21.0453 17.5618C19.9579 19.3006 18.2571 20.5687 16.2789 21.1155C14.3008 21.6622 12.1892 21.4479 10.3617 20.5147C10.2654 20.4654 10.1603 20.4355 10.0525 20.4269C9.9446 20.4183 9.8361 20.4312 9.73322 20.4646C9.63034 20.4981 9.53512 20.5516 9.45305 20.6221C9.37097 20.6925 9.30367 20.7785 9.25503 20.875C9.15719 21.0674 9.13934 21.2905 9.20534 21.496C9.27135 21.7014 9.41588 21.8726 9.60751 21.9722C11.4975 22.9336 13.6479 23.2591 15.7382 22.9002C17.8285 22.5413 19.7466 21.5172 21.2067 19.9806C22.6667 18.444 23.5904 16.4773 23.8401 14.3735C24.0898 12.2698 23.652 10.1418 22.5921 8.30688H24.7398C25.392 8.30688 26.0175 8.04809 26.4787 7.58744C26.9399 7.12679 27.199 6.50202 27.199 5.85056V2.57548C27.199 1.92403 26.9399 1.29926 26.4787 0.838608C26.0175 0.37796 25.392 0.119171 24.7398 0.119171ZM25.5595 5.85056C25.5595 6.06772 25.4731 6.27597 25.3194 6.42952C25.1657 6.58307 24.9572 6.66934 24.7398 6.66934H21.3953C20.8378 6.04691 20.2044 5.49677 19.5099 5.03179H22.2806C22.498 5.03179 22.7065 4.94553 22.8602 4.79198C23.0139 4.63843 23.1003 4.43018 23.1003 4.21302C23.1003 3.99587 23.0139 3.78762 22.8602 3.63407C22.7065 3.48052 22.498 3.39425 22.2806 3.39425H5.88593C5.66852 3.39425 5.46002 3.48052 5.30629 3.63407C5.15256 3.78762 5.06619 3.99587 5.06619 4.21302C5.06619 4.43018 5.15256 4.63843 5.30629 4.79198C5.46002 4.94553 5.66852 5.03179 5.88593 5.03179H8.65662C7.9621 5.49677 7.32869 6.04691 6.77124 6.66934H3.42673C3.20932 6.66934 3.00082 6.58307 2.84709 6.42952C2.69336 6.27597 2.60699 6.06772 2.60699 5.85056V2.57548C2.60699 2.35833 2.69336 2.15007 2.84709 1.99652C3.00082 1.84298 3.20932 1.75671 3.42673 1.75671H24.7398C24.9572 1.75671 25.1657 1.84298 25.3194 1.99652C25.4731 2.15007 25.5595 2.35833 25.5595 2.57548V5.85056Z" fill="#999999"/>
</svg>