<svg xmlns="http://www.w3.org/2000/svg" width="27" height="28" viewBox="0 0 27 28" fill="none">
  <path d="M9.53788 25.4243V21.4912C9.53786 20.4908 10.3534 19.678 11.3639 19.6712H15.0653C16.0806 19.6712 16.9036 20.4861 16.9036 21.4912V25.4365C16.9034 26.2859 17.5882 26.9801 18.4459 27H20.9135C23.3734 27 25.3675 25.0258 25.3675 22.5905V11.402C25.3544 10.444 24.9 9.54432 24.1337 8.95909L15.6945 2.22887C14.2161 1.05701 12.1144 1.05701 10.636 2.22887L2.2338 8.9713C1.4646 9.55416 1.00947 10.4553 1 11.4142V22.5905C1 25.0258 2.99413 27 5.45401 27H7.9216C8.80062 27 9.5132 26.2945 9.5132 25.4243" stroke="url(#paint0_linear_3_26)" stroke-width="1.92375" stroke-linecap="round" stroke-linejoin="round"/>
  <defs>
    <linearGradient id="paint0_linear_3_26" x1="1" y1="13.8072" x2="25.3675" y2="14.5428" gradientUnits="userSpaceOnUse">
      <stop stop-color="#27C9FF"/>
      <stop offset="1" stop-color="#FBD130"/>
    </linearGradient>
  </defs>
</svg>