<svg xmlns="http://www.w3.org/2000/svg" width="22" height="26" viewBox="0 0 22 26" fill="none">
  <path fill-rule="evenodd" clip-rule="evenodd" d="M16.3736 26H5.96136C3.098 26 0.755249 23.66 0.755249 20.8V6.5C0.755249 3.9 2.57739 1.82 5.05029 1.43C5.5709 0.52 6.48197 0 7.52319 0H14.8117C15.853 0 16.764 0.52 17.2847 1.43C19.7576 1.82 21.5797 3.9 21.5797 6.5V20.8C21.5797 23.66 19.2369 26 16.3736 26ZM7.52319 2.6C7.39304 2.6 7.26289 2.73 7.26289 2.73V3.64C7.26289 3.77 7.39304 3.9 7.52319 3.9H14.8117C14.9419 3.9 15.0721 3.77 15.0721 3.64V2.73L14.9419 2.6H7.52319ZM4.65983 4.16C3.87892 4.68 3.3583 5.46 3.3583 6.5V20.93C3.3583 22.36 4.52968 23.53 5.96136 23.53H16.3736C17.8053 23.53 18.9766 22.36 18.9766 20.93V6.63C18.9766 5.59 18.456 4.68 17.6751 4.29V4.42C17.6751 4.485 17.6426 4.55 17.61 4.615C17.5775 4.68 17.545 4.745 17.545 4.81C17.4148 4.81 17.4148 4.94 17.4148 4.94C17.4148 5.005 17.3823 5.0375 17.3497 5.07C17.3172 5.1025 17.2847 5.135 17.2847 5.2L17.1545 5.33L16.8942 5.59L16.764 5.72C16.7143 5.76966 16.6836 5.81931 16.6574 5.86172C16.6149 5.93034 16.5842 5.98 16.5037 5.98L16.3736 6.11C16.3085 6.11 16.276 6.1425 16.2434 6.175C16.2109 6.2075 16.1784 6.24 16.1133 6.24C16.1133 6.37 15.9831 6.37 15.9831 6.37C15.853 6.5 15.7228 6.5 15.5927 6.5H7.52319C7.26289 6.5 7.13273 6.5 6.87243 6.37H6.74228C6.6772 6.37 6.61212 6.3375 6.54705 6.305C6.48197 6.2725 6.41689 6.24 6.35182 6.24C6.35182 6.11 6.22166 6.11 6.22166 6.11C6.15659 6.11 6.12405 6.0775 6.09151 6.045C6.05897 6.0125 6.02644 5.98 5.96136 5.98L5.83121 5.85L5.5709 5.59L5.44075 5.46C5.39103 5.41034 5.34132 5.37966 5.29886 5.35344C5.23016 5.31103 5.18044 5.28034 5.18044 5.2L5.05029 5.07C5.05029 5.07 4.92014 4.94 4.92014 4.81C4.78998 4.81 4.78998 4.68 4.78998 4.68C4.78998 4.615 4.75745 4.55 4.72491 4.485C4.69237 4.42 4.65983 4.355 4.65983 4.29V4.16ZM9.86599 18.2H7.26293C6.48202 18.2 5.96141 17.68 5.96141 16.9C5.96141 16.12 6.48202 15.6 7.26293 15.6H9.86599C10.6469 15.6 11.1675 16.12 11.1675 16.9C11.1675 17.68 10.6469 18.2 9.86599 18.2ZM15.0721 13H7.26293C6.48202 13 5.96141 12.48 5.96141 11.7C5.96141 10.92 6.48202 10.4 7.26293 10.4H15.0721C15.853 10.4 16.3736 10.92 16.3736 11.7C16.3736 12.48 15.853 13 15.0721 13Z" fill="url(#paint0_linear_23_440)"/>
  <defs>
    <linearGradient id="paint0_linear_23_440" x1="0.755249" y1="12.7029" x2="21.5797" y2="13.2971" gradientUnits="userSpaceOnUse">
      <stop stop-color="#27C9FF"/>
      <stop offset="1" stop-color="#FBD130"/>
    </linearGradient>
  </defs>
</svg>