<svg xmlns="http://www.w3.org/2000/svg" width="30" height="26" viewBox="0 0 30 26" fill="none">
  <path d="M27.1702 0H2.99632C2.25656 0 1.54709 0.293526 1.024 0.816006C0.500902 1.33849 0.207031 2.04712 0.207031 2.78602L0.207031 6.50071C0.207031 7.23961 0.500902 7.94825 1.024 8.47073C1.54709 8.99321 2.25656 9.28673 2.99632 9.28673H5.43231C4.22924 11.3624 3.72871 13.7704 4.0051 16.1528C4.28148 18.5353 5.32002 20.7651 6.96642 22.511C7.05067 22.6001 7.15165 22.6716 7.26359 22.7217C7.37553 22.7717 7.49625 22.7993 7.61885 22.8027C7.74145 22.8062 7.86352 22.7855 7.97811 22.7418C8.0927 22.6981 8.19755 22.6323 8.28668 22.5482C8.37582 22.464 8.44748 22.3632 8.49759 22.2514C8.5477 22.1395 8.57526 22.019 8.57872 21.8965C8.58217 21.7741 8.56144 21.6521 8.51772 21.5377C8.47399 21.4232 8.40812 21.3185 8.32387 21.2295C6.72823 19.5363 5.82657 17.3069 5.79711 14.9818C5.76764 12.6567 6.61252 10.4051 8.16475 8.67218C9.71698 6.93922 11.8636 5.85095 14.1804 5.62245C16.4971 5.39395 18.8154 6.04186 20.677 7.43811C22.5385 8.83437 23.808 10.8774 24.2344 13.1633C24.6608 15.4492 24.2131 17.8118 22.9798 19.784C21.7465 21.7561 19.8174 23.1944 17.5737 23.8146C15.33 24.4347 12.935 24.1916 10.8621 23.1332C10.753 23.0773 10.6338 23.0434 10.5114 23.0337C10.3891 23.0239 10.266 23.0384 10.1493 23.0764C10.0326 23.1144 9.92464 23.1751 9.83155 23.255C9.73846 23.3349 9.66213 23.4324 9.60695 23.5419C9.49598 23.7601 9.47573 24.0132 9.5506 24.2462C9.62546 24.4792 9.78939 24.6733 10.0067 24.7863C12.1504 25.8767 14.5895 26.246 16.9603 25.8389C19.3312 25.4318 21.5068 24.2703 23.1629 22.5274C24.8189 20.7846 25.8666 18.5538 26.1498 16.1677C26.4329 13.7816 25.9364 11.368 24.7342 9.28673H27.1702C27.91 9.28673 28.6194 8.99321 29.1425 8.47073C29.6656 7.94825 29.9595 7.23961 29.9595 6.50071V2.78602C29.9595 2.04712 29.6656 1.33849 29.1425 0.816006C28.6194 0.293526 27.91 0 27.1702 0ZM28.1 6.50071C28.1 6.74701 28.002 6.98322 27.8276 7.15738C27.6533 7.33154 27.4168 7.42939 27.1702 7.42939H23.3768C22.7445 6.72342 22.0261 6.09943 21.2383 5.57204H24.3809C24.6275 5.57204 24.864 5.4742 25.0384 5.30004C25.2127 5.12588 25.3107 4.88967 25.3107 4.64337C25.3107 4.39707 25.2127 4.16085 25.0384 3.98669C24.864 3.81253 24.6275 3.71469 24.3809 3.71469H5.78562C5.53903 3.71469 5.30254 3.81253 5.12818 3.98669C4.95381 4.16085 4.85585 4.39707 4.85585 4.64337C4.85585 4.88967 4.95381 5.12588 5.12818 5.30004C5.30254 5.4742 5.53903 5.57204 5.78562 5.57204H8.92822C8.14047 6.09943 7.42205 6.72342 6.78976 7.42939H2.99632C2.74974 7.42939 2.51325 7.33154 2.33888 7.15738C2.16452 6.98322 2.06656 6.74701 2.06656 6.50071V2.78602C2.06656 2.53972 2.16452 2.30351 2.33888 2.12935C2.51325 1.95519 2.74974 1.85735 2.99632 1.85735H27.1702C27.4168 1.85735 27.6533 1.95519 27.8276 2.12935C28.002 2.30351 28.1 2.53972 28.1 2.78602V6.50071Z" fill="url(#paint0_linear_35_1038)"/>
  <defs>
    <linearGradient id="paint0_linear_35_1038" x1="0.207031" y1="12.7029" x2="29.9343" y2="13.9149" gradientUnits="userSpaceOnUse">
      <stop stop-color="#27C9FF"/>
      <stop offset="1" stop-color="#FBD130"/>
    </linearGradient>
  </defs>
</svg>