 <svg xmlns="http://www.w3.org/2000/svg" width="22" height="28" viewBox="0 0 22 28" fill="none">
  <path d="M5.76749 27.0423H16.5675C19.5375 27.0423 21.9675 24.6151 21.9675 21.6486V6.81602C21.9675 4.11919 20.0775 1.96173 17.5125 1.5572C16.9725 0.61331 16.0275 0.0739441 14.9475 0.0739441H7.38749C6.30749 0.0739441 5.36249 0.61331 4.82249 1.5572C2.25749 1.96173 0.367493 4.11919 0.367493 6.81602V21.6486C0.367493 24.6151 2.79749 27.0423 5.76749 27.0423ZM7.11749 2.90562C7.11749 2.90562 7.25249 2.77078 7.38749 2.77078H15.0825L15.2175 2.90562V3.84951C15.2175 3.98435 15.0825 4.11919 14.9475 4.11919H7.38749C7.25249 4.11919 7.11749 3.98435 7.11749 3.84951V2.90562ZM3.06749 6.81602C3.06749 5.73729 3.60749 4.92824 4.41749 4.38887V4.52372C4.41749 4.65856 4.55249 4.7934 4.55249 4.92824C4.55249 4.92824 4.55249 5.06308 4.68749 5.06308C4.68749 5.19792 4.82249 5.33276 4.82249 5.33276L4.95749 5.46761C4.95749 5.60245 5.09249 5.60245 5.22749 5.73729L5.36249 5.87213L5.63249 6.14181L5.76749 6.27666C5.90249 6.27666 5.90249 6.4115 6.03749 6.4115C6.03749 6.4115 6.17249 6.4115 6.17249 6.54634C6.30749 6.54634 6.44249 6.68118 6.57749 6.68118H6.71249C6.98249 6.81602 7.11749 6.81602 7.38749 6.81602H15.7575C15.8925 6.81602 16.0275 6.81602 16.1625 6.68118C16.1625 6.68118 16.2975 6.68118 16.2975 6.54634C16.4325 6.54634 16.4325 6.4115 16.5675 6.4115L16.7025 6.27666C16.8375 6.27666 16.8375 6.14181 16.9725 6.00697L17.1075 5.87213L17.3775 5.60245L17.5125 5.46761C17.5125 5.33276 17.6475 5.33276 17.6475 5.19792C17.6475 5.19792 17.6475 5.06308 17.7825 5.06308C17.7825 4.92824 17.9175 4.7934 17.9175 4.65856V4.52372C18.7275 4.92824 19.2675 5.87213 19.2675 6.95086V21.7834C19.2675 23.2667 18.0525 24.4803 16.5675 24.4803H5.76749C4.28249 24.4803 3.06749 23.2667 3.06749 21.7834V6.81602Z" fill="#999999"/>
  <path d="M7.1175 18.9518H9.8175C10.6275 18.9518 11.1675 18.4124 11.1675 17.6033C11.1675 16.7943 10.6275 16.2549 9.8175 16.2549H7.1175C6.3075 16.2549 5.7675 16.7943 5.7675 17.6033C5.7675 18.4124 6.3075 18.9518 7.1175 18.9518ZM7.1175 13.5581H15.2175C16.0275 13.5581 16.5675 13.0187 16.5675 12.2097C16.5675 11.4006 16.0275 10.8613 15.2175 10.8613H7.1175C6.3075 10.8613 5.7675 11.4006 5.7675 12.2097C5.7675 13.0187 6.3075 13.5581 7.1175 13.5581Z" fill="#999999"/>
</svg>